<svg width="80" height="80" viewBox="0 0 80 80" fill="none" xmlns="http://www.w3.org/2000/svg">
<path d="M40.1703 6.66666L35.6036 16C32.3404 22.6678 27.967 28.7321 22.6703 33.9333L22.0703 34.5C18.6685 37.8025 16.7248 42.3258 16.6703 47.0667V47.6667C16.5802 56.9504 22.1123 65.3671 30.6703 68.9667L31.5369 69.3333C37.1498 71.7174 43.4907 71.7174 49.1036 69.3333H49.3036C57.9256 65.5873 63.4575 57.0331 63.3369 47.6333V33.1667C60.4637 39.7284 55.2456 44.9821 48.7036 47.9C48.7036 47.9 48.7036 47.9 48.5036 47.9C48.3036 47.9 45.9703 48.8667 44.9703 47.9C44.0771 46.9963 43.9916 45.5707 44.7703 44.5667L45.0036 44.4H45.1703C52.8228 38.5833 54.6069 27.8057 49.2369 19.8333C44.9036 13.2333 40.1703 6.66666 40.1703 6.66666Z" fill="url(#paint0_linear_58_87)"/>
<defs>
<linearGradient id="paint0_linear_58_87" x1="40.004" y1="6.66666" x2="40.004" y2="71.1214" gradientUnits="userSpaceOnUse">
<stop stop-color="#2A5CC0"/>
<stop offset="1" stop-color="#09E6FF"/>
</linearGradient>
</defs>
</svg>
